# Blender v2.79 (sub 0) OBJ File: ''
# www.blender.org
mtllib Cornell.mtl
o Cornell_Plane.003
v 11.466355 27.592953 11.466382
v -20.694729 27.592939 20.694756
v -11.466355 27.592953 11.466382
v 20.694715 27.592985 -20.694693
v -20.694719 0.000014 -20.694719
v 20.694723 0.000019 -20.694723
v 11.466355 27.592976 -11.466329
v 20.694721 27.592943 20.694754
v -11.466355 27.592976 -11.466329
v -20.694729 27.592981 -20.694689
v 0.000000 0.000000 0.000000
v -10.347362 0.000011 -10.347362
v -10.347362 0.000000 0.000000
v -20.694723 0.000011 -10.347362
v 0.000000 -0.000019 20.694723
v -10.347362 -0.000011 10.347362
v -10.347362 -0.000019 20.694723
v -20.694723 0.000000 0.000000
v -20.694723 -0.000011 10.347362
v 20.694723 -0.000019 20.694723
v 10.347362 -0.000011 10.347362
v 10.347362 -0.000019 20.694723
v 0.000000 -0.000011 10.347362
v 20.694723 0.000000 0.000000
v 10.347362 0.000011 -10.347362
v 10.347362 0.000000 0.000000
v 0.000000 0.000019 -20.694723
v 0.000000 0.000011 -10.347362
v -10.347362 0.000019 -20.694723
v 20.694723 -0.000011 10.347362
v 20.694723 0.000011 -10.347362
v 10.347362 0.000019 -20.694723
v -20.694719 -0.000025 20.694725
vn 0.0000 1.0000 0.0000
vn 0.0000 -1.0000 -0.0000
vn 0.0000 -0.0000 1.0000
vn -1.0000 -0.0000 0.0000
vn 1.0000 0.0000 0.0000
usemtl Black
s 1
f 31//1 32//1 25//1
f 30//1 26//1 21//1
f 23//1 13//1 16//1
f 28//1 29//1 12//1
f 13//1 14//1 18//1
f 33//1 16//1 19//1
f 22//1 23//1 15//1
f 26//1 28//1 11//1
f 31//1 6//1 32//1
f 30//1 24//1 26//1
f 23//1 11//1 13//1
f 28//1 27//1 29//1
f 13//1 12//1 14//1
f 33//1 17//1 16//1
f 22//1 21//1 23//1
f 26//1 25//1 28//1
usemtl White
f 1//2 2//2 3//2
f 4//3 5//3 6//3
f 7//2 8//2 1//2
f 9//2 4//2 7//2
f 3//2 10//2 9//2
f 11//1 12//1 13//1
f 12//1 5//1 14//1
f 15//1 16//1 17//1
f 16//1 18//1 19//1
f 20//1 21//1 22//1
f 21//1 11//1 23//1
f 24//1 25//1 26//1
f 25//1 27//1 28//1
f 1//2 8//2 2//2
f 4//3 10//3 5//3
f 7//2 4//2 8//2
f 9//2 10//2 4//2
f 3//2 2//2 10//2
f 11//1 28//1 12//1
f 12//1 29//1 5//1
f 15//1 23//1 16//1
f 16//1 13//1 18//1
f 20//1 30//1 21//1
f 21//1 26//1 11//1
f 24//1 31//1 25//1
f 25//1 32//1 27//1
usemtl Red
f 4//4 20//4 8//4
f 4//4 6//4 20//4
usemtl Light
f 9//2 1//2 3//2
f 9//2 7//2 1//2
usemtl Blue
f 33//5 10//5 2//5
f 33//5 5//5 10//5
l 20 33
