# Blender v2.79 (sub 0) OBJ File: ''
# www.blender.org
mtllib test.mtl
o Plane
v 7.943391 -0.000001 7.943391
v -7.943391 0.000001 -7.943391
v -7.943391 -0.000001 7.943391
v 7.943391 0.000001 -7.943391
v -1.000000 10.715490 1.000002
v -1.000000 0.008110 -1.000000
v -1.000000 0.008110 1.000000
v -1.000000 10.715490 -0.999998
v 1.000000 0.008110 -1.000000
v 1.000000 10.715490 -0.999998
v 1.000000 0.008110 1.000000
v 1.000000 10.715490 1.000002
vn 0.0000 1.0000 0.0000
vn 1.0000 0.0000 0.0000
vn 0.0000 -0.0000 1.0000
vn -1.0000 0.0000 0.0000
vn 0.0006 1.0000 -0.0006
vn 0.0006 1.0000 0.0006
vn -0.0006 1.0000 0.0006
vn -0.0006 1.0000 -0.0006
vn 0.0000 0.0000 -1.0000
usemtl None
s off
f 11//1 6//1 7//1
f 11//1 9//1 6//1
s 1
f 5//1 10//1 8//1
f 12//2 9//2 10//2
f 5//3 11//3 12//3
f 8//4 7//4 5//4
f 9//5 1//6 4//5
f 7//7 2//8 3//7
f 10//9 6//9 8//9
f 5//1 12//1 10//1
f 12//2 11//2 9//2
f 5//3 7//3 11//3
f 8//4 6//4 7//4
f 4//5 2//8 9//5
f 2//8 6//8 9//5
f 9//5 11//6 1//6
f 7//7 6//8 2//8
f 3//7 1//6 7//7
f 1//6 11//6 7//7
f 10//9 9//9 6//9
