# Blender v2.79 (sub 0) OBJ File: ''
# www.blender.org
mtllib test.mtl
o Cornell_Plane.003
v -7.078970 -0.000008 7.078972
v -7.078974 9.438635 -7.078960
v -7.078974 9.438621 7.078983
v -7.078970 0.000005 -7.078970
v 3.922256 9.438625 3.922265
v -3.922256 9.438625 3.922265
v 7.078969 9.438636 -7.078961
v 7.078972 0.000007 -7.078972
v 3.922256 9.438633 -3.922247
v 7.078971 9.438622 7.078982
v -3.922256 9.438633 -3.922247
v 0.000000 0.000000 0.000000
v -3.539486 0.000004 -3.539486
v -3.539486 0.000000 0.000000
v -7.078972 0.000004 -3.539486
v 0.000000 -0.000007 7.078972
v -3.539486 -0.000004 3.539486
v -3.539486 -0.000007 7.078972
v -7.078972 0.000000 0.000000
v -7.078972 -0.000004 3.539486
v 7.078972 -0.000007 7.078972
v 3.539486 -0.000004 3.539486
v 3.539486 -0.000007 7.078972
v 0.000000 -0.000004 3.539486
v 7.078972 0.000000 0.000000
v 3.539486 0.000004 -3.539486
v 3.539486 0.000000 0.000000
v 0.000000 0.000007 -7.078972
v 0.000000 0.000004 -3.539486
v -3.539486 0.000007 -7.078972
v 7.078972 -0.000004 3.539486
v 7.078972 0.000004 -3.539486
v 3.539486 0.000007 -7.078972
vn 0.0000 -1.0000 -0.0000
vn 0.0000 -0.0000 1.0000
vn 0.0000 1.0000 0.0000
vn 1.0000 0.0000 0.0000
vn -1.0000 -0.0000 0.0000
usemtl Light
s 1
f 11//1 5//1 6//1
f 11//1 9//1 5//1
usemtl White.004
f 5//1 3//1 6//1
f 7//2 4//2 8//2
f 9//1 10//1 5//1
f 11//1 7//1 9//1
f 6//1 2//1 11//1
f 12//3 13//3 14//3
f 13//3 4//3 15//3
f 16//3 17//3 18//3
f 17//3 19//3 20//3
f 21//3 22//3 23//3
f 22//3 12//3 24//3
f 25//3 26//3 27//3
f 26//3 28//3 29//3
f 5//1 10//1 3//1
f 7//2 2//2 4//2
f 9//1 7//1 10//1
f 11//1 2//1 7//1
f 6//1 3//1 2//1
f 12//3 29//3 13//3
f 13//3 30//3 4//3
f 16//3 24//3 17//3
f 17//3 14//3 19//3
f 21//3 31//3 22//3
f 22//3 27//3 12//3
f 25//3 32//3 26//3
f 26//3 33//3 28//3
usemtl Blue.003
f 1//4 2//4 3//4
f 1//4 4//4 2//4
usemtl Black.004
f 32//3 33//3 26//3
f 31//3 27//3 22//3
f 24//3 14//3 17//3
f 29//3 30//3 13//3
f 14//3 15//3 19//3
f 1//3 17//3 20//3
f 23//3 24//3 16//3
f 27//3 29//3 12//3
f 32//3 8//3 33//3
f 31//3 25//3 27//3
f 24//3 12//3 14//3
f 29//3 28//3 30//3
f 14//3 13//3 15//3
f 1//3 18//3 17//3
f 23//3 22//3 24//3
f 27//3 26//3 29//3
usemtl Red.003
f 7//5 21//5 10//5
f 7//5 8//5 21//5
