# Blender v2.79 (sub 0) OBJ File: ''
# www.blender.org
mtllib test.mtl
o Plane
v -7.943391 0.000000 7.943391
v 7.943391 0.000000 7.943391
v -7.943391 0.000000 -7.943391
v 7.943391 0.000000 -7.943391
v -1.000000 0.146310 1.000000
v -1.000000 10.853691 1.000000
v -1.000000 0.146310 -1.000000
v -1.000000 10.853691 -1.000000
v 1.000000 0.146310 1.000000
v 1.000000 10.853691 1.000000
v 1.000000 0.146310 -1.000000
v 1.000000 10.853691 -1.000000
vn 0.0000 1.0000 0.0000
vn -1.0000 0.0000 0.0000
vn 0.0000 0.0000 -1.0000
vn 1.0000 0.0000 0.0000
vn 0.0000 0.0000 1.0000
vn 0.0000 -1.0000 0.0000
usemtl None
s off
f 2//1 3//1 1//1
f 6//2 7//2 5//2
f 8//3 11//3 7//3
f 12//4 9//4 11//4
f 10//5 5//5 9//5
f 11//6 5//6 7//6
f 8//1 10//1 12//1
f 2//1 4//1 3//1
f 6//2 8//2 7//2
f 8//3 12//3 11//3
f 12//4 10//4 9//4
f 10//5 6//5 5//5
f 11//6 9//6 5//6
f 8//1 6//1 10//1
